# xmcd
#
# Track frame offsets: 
#        150
#        11764
#        24276
#        35619
#        47194
#        59043
#        70780
#        83104
#        94728
#        105502
#        119214
#        130394
#        141116
#        152543
#        162242
#        175728
#        188669
#        201836
#        213208
#        226430
#
# Disc length: 3172 seconds
#
# Revision: 1
# Processed by: cddbd v1.5.2PL0 Copyright (c) Steve Scherf et al.
# Submitted via: ExactAudioCopyFreeDBPlugin 1.0
#
DISCID=160c6214
DTITLE=Roy Milton, Amos Milburn - ABC Of The Blues - Vol. 30 Roy Milto
DTITLE=n, Amos Milburn
DYEAR=2010
DGENRE=Blues
TTITLE0=Roy Milton - Cryin' And Singin' The Blues
TTITLE1=Roy Milton - I Want A Little Girl
TTITLE2=Roy Milton - My Blue Heaven
TTITLE3=Roy Milton - 'Taint Me
TTITLE4=Roy Milton - Groovy Blues
TTITLE5=Roy Milton - Waking Up Blues
TTITLE6=Roy Milton - Sympathetic Blues
TTITLE7=Roy Milton - Playboy Blues
TTITLE8=Roy Milton - Rhythm Cocktail
TTITLE9=Roy Milton - Bye Bye Blues
TTITLE10=Amos Milburn - Chicken shack boogie
TTITLE11=Amos Milburn - I'm Still A Fool For You
TTITLE12=Amos Milburn - All Is Well
TTITLE13=Amos Milburn - My Happiness Depends On You
TTITLE14=Amos Milburn - I Know You Love Me
TTITLE15=Amos Milburn - One Scotch, One Bourbon, One Beer
TTITLE16=Amos Milburn - Bad Bad Whiskey
TTITLE17=Amos Milburn - Let's Have A Party
TTITLE18=Amos Milburn - Down The Road Apiece
TTITLE19=Amos Milburn - Trouble In Mind
EXTD=
EXTT0=
EXTT1=
EXTT2=
EXTT3=
EXTT4=
EXTT5=
EXTT6=
EXTT7=
EXTT8=
EXTT9=
EXTT10=
EXTT11=
EXTT12=
EXTT13=
EXTT14=
EXTT15=
EXTT16=
EXTT17=
EXTT18=
EXTT19=
PLAYORDER=
